:SAMPLES-PER-SECOND 30
:FULLY-SPECIFIED
:DEGREES
926
root  -54.9788 39.4258 5.33237 -169.954 -75.5047 176.639
RightUpLeg  -23.6513 0.486918 -10.3607
RightLeg  15.6835 7.81059 1.54576
RightFoot  0.794415 -0.796964 7.53908
RightToes  5.82063e-011 0 -3.6325e-017
Spine  22.5745 -1.64409 8.41776
Spine1  6.15384 1.85925 -8.19623
HEad  -22.6263 1.47185 -4.07364
LeftShoulder1  1.02749 -1.48766 -13.6494
LeftArm  -18.7043 -57.6354 -47.8204
LeftForeArm  -8.03013 -34.5971 -8.19543
LeftHand  0.00193799 7.98968 1.94418
RightShoulder  0.614859 1.30418 4.95009
RightArm  -24.2059 64.47 34.3239
RightForeArm  -23.1985 25.0311 6.50992
RightHand  -0.943601 10.9958 -7.08276
LeftUpLeg  -26.4691 7.24564 0.439544
LeftLeg  20.6901 -6.59187 -2.41529
LeftFoot  0.439688 -0.259363 2.48767
LeftToes  -1.20963e-009 8.6283e-011 2.04439e-011
927
root  -55.1741 39.4769 5.38083 -170.361 -76.1594 176.533
RightUpLeg  -22.4061 0.444968 -10.5445
RightLeg  15.3449 7.50368 1.31675
RightFoot  0.209283 -0.808615 7.9953
RightToes  5.82063e-011 0 -3.6325e-017
Spine  22.2266 -1.41674 7.27527
Spine1  6.20203 1.53763 -6.80147
HEad  -22.7008 2.30974 -4.93545
LeftShoulder1  0.972076 -0.889953 -15.2696
LeftArm  -14.7854 -55.8699 -48.5356
LeftForeArm  -8.82717 -37.4193 -9.08556
LeftHand  0.0229087 7.54037 3.17523
RightShoulder  0.658253 1.41973 5.63182
RightArm  -21.9346 61.5912 36.1593
RightForeArm  -21.5404 29.1362 7.38561
RightHand  -0.91576 11.6821 -6.6266
LeftUpLeg  -25.5218 7.25038 0.295551
LeftLeg  20.4091 -7.19546 -2.6248
LeftFoot  0.174989 -0.243159 2.4001
LeftToes  -1.20963e-009 8.6283e-011 2.04439e-011
928
root  -55.3482 39.5223 5.34301 -171.084 -77.0742 176.792
RightUpLeg  -21.2345 1.11523 -10.7717
RightLeg  15.2203 6.49037 1.09789
RightFoot  -0.460195 -0.812004 8.47954
RightToes  5.82063e-011 0 -3.6325e-017
Spine  21.551 -1.30814 6.89847
Spine1  6.45999 1.57225 -6.68148
HEad  -23.0053 3.00428 -5.4201
LeftShoulder1  1.00858 -0.96512 -15.7803
LeftArm  -12.0074 -52.9345 -50.1731
LeftForeArm  -7.01524 -40.9188 -10.1287
LeftHand  0.00632713 7.08904 2.80409
RightShoulder  0.674445 1.00517 7.4159
RightArm  -19.6857 58.7465 36.8747
RightForeArm  -21.3892 33.5119 8.56214
RightHand  -1.11624 10.9814 -8.28938
LeftUpLeg  -24.6706 6.978 0.431634
LeftLeg  20.2086 -7.77198 -2.82656
LeftFoot  -0.121664 -0.216848 2.2157
LeftToes  -1.20963e-009 8.6283e-011 2.04439e-011
929
root  -55.5166 39.5716 5.24059 -171.864 -78.2921 176.611
RightUpLeg  -19.6917 2.19016 -11.0888
RightLeg  15.5979 5.26861 0.987825
RightFoot  -1.49844 -0.798638 9.14067
RightToes  5.82063e-011 0 -3.6325e-017
Spine  21.1239 -1.24864 6.58473
Spine1  6.83713 1.52179 -6.41391
HEad  -23.3388 4.05622 -6.20303
LeftShoulder1  1.01436 -0.778844 -16.9916
LeftArm  -9.1921 -50.1653 -51.2032
LeftForeArm  -5.53669 -44.3672 -11.3173
LeftHand  0.00225917 6.79575 2.99763
RightShoulder  0.67857 0.612569 9.15254
RightArm  -18.4143 55.2865 38.1286
RightForeArm  -18.0589 38.2632 9.84691
RightHand  -1.08122 10.7602 -8.14866
LeftUpLeg  -23.2969 6.7911 0.618789
LeftLeg  19.9704 -8.87072 -3.23643
LeftFoot  -0.24483 -0.212713 2.20514
LeftToes  -1.20963e-009 8.6283e-011 2.04439e-011
930
root  -55.6237 39.5967 5.09336 -169.615 -79.631 173.609
RightUpLeg  -18.9588 3.83142 -12.1146
RightLeg  16.981 5.00863 1.45571
RightFoot  -2.9343 -0.72615 9.57911
RightToes  5.82063e-011 0 -3.6325e-017
Spine  20.5421 -1.22379 5.56967
Spine1  7.01982 1.31187 -6.24879
HEad  -23.684 5.51591 -7.31439
LeftShoulder1  0.950431 -0.388774 -17.7882
LeftArm  -6.6319 -46.954 -51.6534
LeftForeArm  -4.02926 -48.081 -12.7876
LeftHand  0.0133379 6.63605 4.05587
RightShoulder  0.712621 0.375639 11.2282
RightArm  -16.8513 51.9549 38.429
RightForeArm  -15.5733 42.9055 11.3638
RightHand  -1.13978 10.8948 -8.49845
LeftUpLeg  -22.1161 6.27151 0.337774
LeftLeg  19.3263 -9.75415 -3.51179
LeftFoot  -0.154086 -0.201934 2.0715
LeftToes  -1.20963e-009 8.6283e-011 2.04439e-011
931
root  -55.7006 39.6054 4.86548 -166.731 -81.2499 170.268
RightUpLeg  -18.5502 5.87297 -12.9813
RightLeg  18.6929 7.39842 2.59134
RightFoot  -4.46454 -0.61412 9.69233
RightToes  5.82063e-011 0 -3.6325e-017
Spine  19.6628 -1.03226 4.73593
Spine1  7.30781 1.16096 -5.54747
HEad  -24.1286 6.25151 -8.18851
LeftShoulder1  0.965634 -0.259222 -19.1096
LeftArm  -4.84093 -43.493 -51.9461
LeftForeArm  -1.42043 -51.6812 -14.3882
LeftHand  -0.00418095 6.27561 3.6511
RightShoulder  0.689873 0.0815381 12.3604
RightArm  -15.9037 48.063 38.4865
RightForeArm  -13.1454 47.9421 13.3292
RightHand  -1.21774 10.9719 -9.01064
LeftUpLeg  -21.3893 5.88097 0.269201
LeftLeg  18.8583 -11.0191 -3.94368
LeftFoot  -0.134259 -0.164994 1.69011
LeftToes  -1.20963e-009 8.6283e-011 2.04439e-011
932
root  -55.7687 39.6011 4.58352 -161.973 -83.1285 164.702
RightUpLeg  -17.6204 8.56562 -13.6837
RightLeg  20.5656 10.6417 4.18172
RightFoot  -6.66332 -0.44967 9.90184
RightToes  5.82063e-011 0 -3.6325e-017
Spine  19.0278 -1.02381 4.50248
Spine1  7.69192 1.20341 -5.96523
HEad  -24.4202 6.70213 -8.47072
LeftShoulder1  0.999301 -0.318562 -19.6699
LeftArm  -2.57725 -39.9319 -52.269
LeftForeArm  0.770647 -55.2107 -16.2911
LeftHand  -0.00547053 5.77603 5.53829
RightShoulder  0.604303 -0.745286 15.1595
RightArm  -14.998 44.783 37.4481
RightForeArm  -10.8556 52.6973 15.6797
RightHand  -1.16623 10.6671 -8.80412
LeftUpLeg  -20.3365 5.19269 0.27278
LeftLeg  18.4314 -12.2823 -4.32332
LeftFoot  -0.147999 -0.118148 1.21454
LeftToes  -1.20963e-009 8.6283e-011 2.04439e-011
